# AST/ASF file generated using VICON BodyLanguage
# -----------------------------------------------
:version 1.10
:name VICON
:units
  mass 1.0
  length 0.45
  angle deg
:documentation
   .ast/.asf automatically generated from VICON data using
   VICON BodyBuilder and BodyLanguage model FoxedUp or BRILLIANT.MOD
:root
   order TX TY TZ RX RY RZ
   axis XYZ
   position 0 0 0  
   orientation 0 0 0 
:bonedata
  begin
     id 1 
     name lhipjoint
     direction 0.589753 -0.68606 0.426044 
     length 2.54082 
     axis 0 0 0  XYZ
  end
  begin
     id 2 
     name lfemur
     direction 0.34202 -0.939693 0  
     length 7.04539  
     axis 0 0 20  XYZ
    dof rx ry rz
    limits (-160.0 20.0)
           (-70.0 70.0)
           (-60.0 70.0)
  end
  begin
     id 3 
     name ltibia
     direction 0.34202 -0.939693 0   
     length 7.83772   
     axis 0 0 20   XYZ
    dof rx
    limits (-10.0 170.0)
  end
  begin
     id 4 
     name lfoot
     direction 0.0596604 -0.163915 0.984669   
     length 2.39542   
     axis -90 7.62852e-016 20   XYZ
    dof rx rz
    limits (-45.0 90.0)
           (-70.0 20.0)
  end
  begin
     id 5 
     name ltoes
     direction 1.53514e-011 -4.21954e-011 1   
     length 1.2047   
     axis -90 7.62852e-016 20   XYZ
    dof rx
    limits (-90.0 20.0)
  end
  begin
     id 6 
     name rhipjoint
     direction -0.580585 -0.69168 0.429534   
     length 2.52018  
     axis 0 0 0  XYZ 
  end
  begin
     id 7 
     name rfemur
     direction -0.34202 -0.939693 0   
     length 7.0101   
     axis 0 0 -20   XYZ
    dof rx ry rz
    limits (-160.0 20.0)
           (-70.0 70.0)
           (-70.0 60.0)
  end
  begin
     id 8 
     name rtibia
     direction -0.34202 -0.939693 0   
     length 7.70628   
     axis 0 0 -20   XYZ
    dof rx
    limits (-10.0 170.0)
 end
 begin
     id 9 
     name rfoot
     direction -0.0696237 -0.19129 0.979061   
     length 2.52466  
     axis -90 -7.62852e-016 -20   XYZ
    dof rx rz
    limits (-45.0 90.0)
           (-20.0 70.0)
  end
  begin
     id 10 
     name rtoes
     direction -1.53519e-011 -4.21793e-011 1   
     length 1.266   
     axis -90 -7.62852e-016 -20   XYZ
    dof rx
    limits (-90.0 20.0)
  end
  begin
     id 11 
     name lowerback
     direction 0.00381965 0.995707 -0.0924856   
     length 2.20825   
     axis 0 0 0   XYZ
    dof rx ry rz
    limits (-20.0 45.0)
           (-30.0 30.0)
           (-30.0 30.0)
  end
  begin
     id 12 
     name upperback
     direction -0.0139043 0.999634 -0.0231929   
     length 2.21517   
     axis 0 0 0   XYZ
    dof rx ry rz
    limits (-20.0 45.0)
           (-30.0 30.0)
           (-30.0 30.0)
  end
  begin
     id 13 
     name thorax
     direction -0.0143933 0.999691 0.0202892   
     length 2.22911   
     axis 0 0 0   XYZ
    dof rx ry rz
    limits (-20.0 45.0)
           (-30.0 30.0)
           (-30.0 30.0)
  end
  begin
     id 14 
     name lowerneck
     direction -0.0251153 0.981819 0.188153   
     length 1.61782   
     axis 0 0 0   XYZ
    dof rx ry rz
    limits (-20.0 45.0)
           (-30.0 30.0)
           (-30.0 30.0)
  end
  begin
     id 15 
     name upperneck
     direction 0.0563891 0.969357 -0.239095   
     length 1.64526   
     axis 0 0 0   XYZ
    dof rx ry rz
    limits (-20.0 45.0)
           (-30.0 30.0)
           (-30.0 30.0)
  end
  begin
     id 16
     name head
     direction 0.0208328 0.99459 -0.101773  
     length 1.67436  
     axis 0 0 0   XYZ
    dof rx ry rz
    limits (-20.0 45.0)
           (-30.0 30.0)
           (-30.0 30.0)
  end
  begin
     id 17 
     name lclavicle
     direction 0.917689 0.397224 0.00772059  
     length 3.31102  
     axis 0 0 0   XYZ
    dof ry rz
    limits (-20.0 10.0)
           (0.0 20.0)
  end
  begin
     id 18 
     name lhumerus
     direction 1 -4.4896e-011 2.32308e-027   
     length 5.25537   
     axis 180 -30 -90   XYZ
    dof rx ry rz
    limits (-60.0 90.0)
           (-90.0 90.0)
           (-90.0 90.0)
  end
  begin
     id 19
     name lradius
     direction 1 -4.49005e-011 -2.04271e-027   
     length 3.38855   
     axis 180 -30 -90   XYZ
    dof rx
    limits (-10.0 170.0)
  end
  begin
     id 20
     name lwrist
     direction 1 -4.48892e-011 2.56952e-028   
     length 1.69428   
     axis -5.12785e-016 90 90   XYZ
    dof ry
    limits (-180.0 0.0)
 end
  begin
     id 21 
     name lhand
     direction 1 -4.48966e-011 5.13905e-028   
     length 0.614516   
     axis -3.27915e-016 90 90   XYZ
    dof rx rz
    limits (-90.0 90.0)
           (-45.0 45.0)
  end
  begin
     id 22 
     name lfingers
     direction 1 -4.48979e-011 1.02781e-027   
     length 0.495439   
     axis -6.5583e-016 90 90   XYZ
    dof rx
    limits (0.0 90.0)
  end
  begin
     id 23
     name lthumb
     direction 0.707107 -6.35001e-011 0.707107   
     length 0.711354   
     axis -90 45 2.85299e-015   XYZ
    dof rx rz
    limits (-45.0 45.0)
           (-45.0 45.0)
  end
  begin
     id 24 
     name rclavicle
     direction -0.938556 0.342765 -0.0403177   
     length 3.27019  
     axis 0 0 0   XYZ 
    dof ry rz
    limits (-10.0 20.0)
           (-20.0 0.0)
  end
  begin
     id 25 
     name rhumerus
     direction -1 -4.48966e-011 2.52291e-027  
     length 5.38183   
     axis 180 30 90   XYZ
    dof rx ry rz
    limits (-90.0 60.0)
           (-90.0 90.0)
           (-90.0 90.0)
  end
  begin
     id 26 
     name rradius
     direction -1 -4.4896e-011 1.5797e-027   
     length 3.16988   
     axis 180 30 90   XYZ
    dof rx
    limits (-10.0 170.0)
  end
  begin
     id 27 
     name rwrist
     direction -1 -4.48947e-011 2.56952e-028   
     length 1.58494   
     axis -5.12785e-016 -90 -90   XYZ
    dof ry
    limits (-180.0 0.0)
  end
  begin
     id 28
     name rhand
     direction -1 -4.49098e-011 5.13905e-028   
     length 0.637679   
     axis -3.27915e-016 -90 -90   XYZ
    dof rx rz
    limits (-90.0 90.0)
           (-45.0 45.0)
  end
  begin
     id 29
     name rfingers
     direction -1 -4.49026e-011 1.02781e-027   
     length 0.514113   
     axis -6.5583e-016 -90 -90   XYZ
    dof rx
    limits (0.0 90.0)
  end
  begin
     id 30
     name rthumb
     direction -0.707107 -6.3491e-011 0.707107   
     length 0.738167   
     axis -90 -45 -2.85299e-015   XYZ
    dof rx rz
    limits (-45.0 45.0)
           (-45.0 45.0)
  end
:hierarchy
  begin
    root lhipjoint rhipjoint lowerback
    lhipjoint lfemur
    lfemur ltibia
    ltibia lfoot
    lfoot ltoes
    rhipjoint rfemur
    rfemur rtibia
    rtibia rfoot
    rfoot rtoes
    lowerback upperback
    upperback thorax
    thorax lowerneck lclavicle rclavicle
    lowerneck upperneck
    upperneck head
    lclavicle lhumerus
    lhumerus lradius
    lradius lwrist
    lwrist lhand lthumb
    lhand lfingers
    rclavicle rhumerus
    rhumerus rradius
    rradius rwrist
    rwrist rhand rthumb
    rhand rfingers
  end

#!OML:ASF H:\Swim\Project 1\Capture day 1\Session 1\swimmer.ASF
:FULLY-SPECIFIED
:DEGREES
3158
root 3.40447 16.7803 -20.4562 93.5638 -6.46639 15.9311
lowerback 10.2829 -5.42203 -7.72819
upperback -8.81542 -9.26829 -2.23298
thorax -14.8445 -3.73379 3.84073
lowerneck -7.70771 -6.58963 -15.6694
upperneck -11.1019 -6.81299 21.3675
head -0.458539 -3.30134 9.11992
rclavicle -8.90555e-014 -2.68359e-014
rhumerus 15.5882 49.5129 12.8962
rradius 78.3551
rwrist -227.524
rhand -36.7845 -19.8944
rfingers 7.12502
rthumb -9.86673 -49.6432
lclavicle -8.90555e-014 -2.68359e-014
lhumerus 17.5011 -63.7577 -21.2499
lradius 93.2212
lwrist 27.0209
lhand -12.2753 -11.2617
lfingers 7.12502
lthumb 13.7917 18.2611
rfemur -24.3793 -1.81259 5.44493
rtibia 37.5372
rfoot -44.2863 -20.3433
rtoes -20.819
lfemur -30.546 -22.6375 -19.6837
ltibia 21.6316
lfoot 8.68033 7.93667
ltoes -8.19498
3159
root 3.39275 16.7747 -20.4476 93.3542 -6.36153 15.9921
lowerback 10.3774 -5.33765 -7.90665
upperback -8.83936 -9.18443 -2.16971
thorax -14.9056 -3.66455 4.00165
lowerneck -7.7303 -6.62503 -15.4745
upperneck -11.3215 -6.85289 21.1872
head -0.529024 -3.32906 9.02757
rclavicle 3.4191e-014 1.3418e-015
rhumerus 14.3315 49.77 11.7713
rradius 79.9667
rwrist -227.807
rhand -36.5037 -20.1233
rfingers 7.12502
rthumb -9.59577 -49.8848
lclavicle 3.4191e-014 1.3418e-015
lhumerus 16.3383 -64.0502 -19.1278
lradius 94.4266
lwrist 26.8925
lhand -12.6805 -11.2159
lfingers 7.12502
lthumb 13.4012 18.3331
rfemur -24.2607 -1.77217 5.40878
rtibia 37.5338
rfoot -44.4949 -20.1642
rtoes -20.2748
lfemur -30.4905 -22.62 -19.858
ltibia 21.6502
lfoot 8.74869 7.96489
ltoes -8.2545
3160
root 3.38086 16.7691 -20.4389 93.1444 -6.2482 16.0528
lowerback 10.4784 -5.2244 -8.11399
upperback -8.86221 -9.06427 -2.09353
thorax -14.9683 -3.57369 4.1858
lowerneck -7.73852 -6.66914 -15.2344
upperneck -11.5694 -6.90954 20.949
head -0.612755 -3.36727 8.90839
rclavicle 3.29983e-014 2.93704e-014
rhumerus 12.921 50.0189 10.5406
rradius 81.6393
rwrist -228.065
rhand -36.1398 -20.3132
rfingers 7.12502
rthumb -9.24466 -50.0905
lclavicle 3.29983e-014 2.93704e-014
lhumerus 15.1798 -64.3103 -16.8197
lradius 95.5722
lwrist 26.7891
lhand -12.9695 -11.1875
lfingers 7.12502
lthumb 13.1226 18.3797
rfemur -24.1307 -1.70287 5.37861
rtibia 37.5265
rfoot -44.704 -19.9832
rtoes -19.7682
lfemur -30.4379 -22.6089 -20.0178
ltibia 21.6587
lfoot 8.83681 7.96459
ltoes -8.23062
3161
root 3.36913 16.7638 -20.43 92.9562 -6.11976 16.1277
lowerback 10.5628 -5.11372 -8.29769
upperback -8.89389 -8.94261 -2.01207
thorax -15.0353 -3.48402 4.36163
lowerneck -7.75309 -6.71106 -14.9774
upperneck -11.8202 -6.96512 20.6842
head -0.699319 -3.40475 8.77807
rclavicle -5.99336e-014 -4.83544e-014
rhumerus 11.4604 50.2528 9.22661
rradius 83.3483
rwrist -228.368
rhand -35.7056 -20.4488
rfingers 7.12502
rthumb -8.82576 -50.2443
lclavicle -5.99336e-014 -4.83544e-014
lhumerus 13.9899 -64.5527 -14.4337
lradius 96.7415
lwrist 26.766
lhand -13.1733 -11.1476
lfingers 7.12502
lthumb 12.9262 18.4321
rfemur -24.0114 -1.62983 5.36152
rtibia 37.5141
rfoot -44.8811 -19.8596
rtoes -19.3726
lfemur -30.4181 -22.6018 -20.1523
ltibia 21.6588
lfoot 8.95185 7.92254
ltoes -8.18012
3162
root 3.35738 16.7584 -20.4208 92.7616 -5.97628 16.1942
lowerback 10.6529 -5.0086 -8.45212
upperback -8.92851 -8.82505 -1.92988
thorax -15.1144 -3.39839 4.5246
lowerneck -7.77939 -6.74623 -14.7294
upperneck -12.0627 -7.01093 20.4231
head -0.783121 -3.43616 8.65144
rclavicle 2.33075e-014 3.97569e-015
rhumerus 10.0133 50.4719 7.85814
rradius 85.0852
rwrist -228.775
rhand -35.2082 -20.5212
rfingers 7.12502
rthumb -8.34566 -50.3363
lclavicle 2.33075e-014 3.97569e-015
lhumerus 12.7425 -64.783 -12.0037
lradius 97.9602
lwrist 26.8241
lhand -13.3616 -11.0829
lfingers 7.12502
lthumb 12.7446 18.5082
rfemur -23.8775 -1.54668 5.36013
rtibia 37.4972
rfoot -45.0017 -19.8073
rtoes -19.1229
lfemur -30.3896 -22.5825 -20.2748
ltibia 21.6511
lfoot 9.10273 7.84918
ltoes -8.04586
3163
root 3.34565 16.7532 -20.4114 92.5652 -5.826 16.2531
lowerback 10.743 -4.92847 -8.55745
upperback -8.9701 -8.73646 -1.85653
thorax -15.2076 -3.33134 4.65798
lowerneck -7.83219 -6.76738 -14.5165
upperneck -12.2722 -7.03482 20.1924
head -0.853952 -3.45354 8.54136
rclavicle -2.99668e-014 1.4547e-014
rhumerus 8.65549 50.6721 6.43404
rradius 86.8202
rwrist -229.316
rhand -34.6755 -20.5209
rfingers 7.12502
rthumb -7.83158 -50.3558
lclavicle -2.99668e-014 1.4547e-014
lhumerus 11.4428 -65.0021 -9.65
lradius 99.2963
lwrist 26.9836
lhand -13.5852 -10.9596
lfingers 7.12502
lthumb 12.529 18.6447
rfemur -23.7357 -1.48213 5.36851
rtibia 37.4794
rfoot -45.0521 -19.8147
rtoes -19.0116
lfemur -30.3598 -22.5671 -20.3856
ltibia 21.6332
lfoot 9.24855 7.77669
ltoes -7.9179
3164
root 3.334 16.748 -20.4022 92.3719 -5.67612 16.3105
lowerback 10.8315 -4.86283 -8.63969
upperback -9.01745 -8.66548 -1.78752
thorax -15.3093 -3.27471 4.77803
lowerneck -7.90559 -6.78441 -14.3411
upperneck -12.4605 -7.05063 19.9772
head -0.914448 -3.46404 8.44266
rclavicle 3.18055e-015 -1.19457e-014
rhumerus 7.34546 50.8586 4.96527
rradius 88.5666
rwrist -229.998
rhand -34.1224 -20.4574
rfingers 7.12502
rthumb -7.29771 -50.3115
lclavicle 3.18055e-015 -1.19457e-014
lhumerus 10.0787 -65.1952 -7.25653
lradius 100.678
lwrist 27.1401
lhand -13.8438 -10.7975
lfingers 7.12502
lthumb 12.2797 18.822
rfemur -23.5935 -1.47644 5.38005
rtibia 37.4633
rfoot -45.0043 -19.9054
rtoes -19.0434
lfemur -30.3381 -22.5809 -20.4834
ltibia 21.607
lfoot 9.37374 7.72172
ltoes -7.72197
3165
root 3.32233 16.7431 -20.3932 92.1826 -5.52944 16.3656
lowerback 10.9154 -4.81709 -8.70086
upperback -9.06956 -8.61951 -1.72321
thorax -15.4147 -3.2322 4.88649
lowerneck -8.00223 -6.79558 -14.2139
upperneck -12.6208 -7.05476 19.7913
head -0.961489 -3.46542 8.36155
rclavicle 1.63003e-014 1.11444e-014
rhumerus 6.11707 51.016 3.46879
rradius 90.3212
rwrist -230.813
rhand -33.5574 -20.3458
rfingers 7.12502
rthumb -6.75228 -50.2181
lclavicle 1.63003e-014 1.11444e-014
lhumerus 8.66984 -65.3557 -4.87045
lradius 102.112
lwrist 27.2764
lhand -14.1559 -10.5958
lfingers 7.12502
lthumb 11.9788 19.0414
rfemur -23.4523 -1.53022 5.39367
rtibia 37.4514
rfoot -44.9095 -19.9753
rtoes -19.1229
lfemur -30.3267 -22.6352 -20.5658
ltibia 21.5723
lfoot 9.54026 7.6984
ltoes -7.2257
3166
root 3.31065 16.7385 -20.3846 91.9948 -5.37832 16.4253
lowerback 10.9987 -4.76066 -8.77983
upperback -9.11586 -8.55959 -1.64952
thorax -15.511 -3.18097 5.01169
lowerneck -8.10403 -6.81889 -14.086
upperneck -12.7871 -7.07655 19.5858
head -1.00797 -3.47528 8.27296
rclavicle -1.70955e-014 -2.05369e-014
rhumerus 4.88248 51.1157 1.94962
rradius 92.0884
rwrist -231.74
rhand -32.9861 -20.2068
rfingers 7.12502
rthumb -6.20082 -50.096
lclavicle -1.70955e-014 -2.05369e-014
lhumerus 7.23122 -65.4727 -2.30969
lradius 103.474
lwrist 27.2497
lhand -14.5034 -10.3899
lfingers 7.12502
lthumb 11.6437 19.2665
rfemur -23.3097 -1.67279 5.41889
rtibia 37.4437
rfoot -44.7668 -19.9916
rtoes -19.2121
lfemur -30.3278 -22.7493 -20.6201
ltibia 21.5326
lfoot 9.74164 7.71957
ltoes -6.41098
3167
root 3.29897 16.7343 -20.3761 91.8226 -5.22698 16.4993
lowerback 11.07 -4.70148 -8.87224
upperback -9.16452 -8.49614 -1.5691
thorax -15.6008 -3.12645 5.14969
lowerneck -8.21899 -6.85126 -13.9544
upperneck -12.9362 -7.11364 19.3583
head -1.04669 -3.4916 8.17488
rclavicle 1.50082e-014 3.11843e-014
rhumerus 3.65637 51.1669 0.371361
rradius 93.8362
rwrist -232.704
rhand -32.4122 -20.0518
rfingers 7.12502
rthumb -5.64669 -49.9565
lclavicle 1.50082e-014 3.11843e-014
lhumerus 5.80188 -65.5484 0.381738
lradius 104.761
lwrist 27.0901
lhand -14.8738 -10.1764
lfingers 7.12502
lthumb 11.2865 19.4999
rfemur -23.1792 -1.89645 5.4503
rtibia 37.4397
rfoot -44.6032 -19.9677
rtoes -19.2671
lfemur -30.3601 -22.9158 -20.6504
ltibia 21.4917
lfoot 9.98176 7.76281
ltoes -5.34843
3168
root 3.28714 16.7305 -20.368 91.6547 -5.0663 16.584
lowerback 11.138 -4.6509 -8.95125
upperback -9.21396 -8.44149 -1.4849
thorax -15.6898 -3.07723 5.28635
lowerneck -8.36141 -6.88662 -13.802
upperneck -13.0452 -7.15812 19.1311
head -1.06921 -3.51068 8.0709
rclavicle -4.87022e-015 -7.95139e-016
rhumerus 2.55312 51.1611 -1.21166
rradius 95.539
rwrist -233.692
rhand -31.8151 -19.8882
rfingers 7.12502
rthumb -5.07023 -49.8076
lclavicle -4.87022e-015 -7.95139e-016
lhumerus 4.35617 -65.5717 3.15947
lradius 106.007
lwrist 26.8346
lhand -15.259 -9.95635
lfingers 7.12502
lthumb 10.9149 19.74
rfemur -23.0505 -2.18274 5.49723
rtibia 37.4391
rfoot -44.4302 -19.9151
rtoes -19.2727
lfemur -30.4092 -23.1331 -20.6501
ltibia 21.4517
lfoot 10.2019 7.83717
ltoes -4.24199
3169
root 3.27508 16.7267 -20.3602 91.4818 -4.90315 16.6742
lowerback 11.2123 -4.61603 -9.01032
upperback -9.26583 -8.4067 -1.40282
thorax -15.7863 -3.03899 5.41518
lowerneck -8.54698 -6.91737 -13.6269
upperneck -13.0944 -7.2003 18.8942
head -1.06974 -3.52638 7.95692
rclavicle 8.94531e-015 -1.0138e-014
rhumerus 1.59845 51.1002 -2.82786
rradius 97.1779
rwrist -234.639
rhand -31.2164 -19.6851
rfingers 7.12502
rthumb -4.49215 -49.6175
lclavicle 8.94531e-015 -1.0138e-014
lhumerus 2.94494 -65.535 5.89063
lradius 107.279
lwrist 26.6033
lhand -15.6622 -9.69115
lfingers 7.12502
lthumb 10.5261 20.0253
rfemur -22.9143 -2.52367 5.5512
rtibia 37.4418
rfoot -44.2421 -19.872
rtoes -19.2425
lfemur -30.4556 -23.3515 -20.6488
ltibia 21.4131
lfoot 10.4013 7.90493
ltoes -3.30799
3170
root 3.26265 16.7229 -20.3525 91.3015 -4.74296 16.7646
lowerback 11.2944 -4.59626 -9.05073
upperback -9.32308 -8.39221 -1.32672
thorax -15.8953 -3.01165 5.533
lowerneck -8.78155 -6.94361 -13.4378
upperneck -13.0761 -7.23988 18.6486
head -1.04477 -3.53784 7.83447
rclavicle 5.36719e-015 3.50855e-014
rhumerus 0.753405 50.9932 -4.53413
rradius 98.7493
rwrist -235.472
rhand -30.5975 -19.4707
rfingers 7.12502
rthumb -3.8945 -49.4149
lclavicle 5.36719e-015 3.50855e-014
lhumerus 1.56302 -65.4418 8.58754
lradius 108.579
lwrist 26.4455
lhand -16.1045 -9.38032
lfingers 7.12502
lthumb 10.0993 20.3573
rfemur -22.77 -2.87671 5.60311
rtibia 37.4467
rfoot -44.0727 -19.8438
rtoes -19.154
lfemur -30.494 -23.5771 -20.6498
ltibia 21.3782
lfoot 10.6054 7.97988
ltoes -2.34658
3171
root 3.24985 16.7191 -20.3453 91.1102 -4.58815 16.8568
lowerback 11.3876 -4.57797 -9.08959
upperback -9.38024 -8.38174 -1.25599
thorax -16.0123 -2.98585 5.64639
lowerneck -9.05915 -6.97185 -13.2248
upperneck -13.0037 -7.28686 18.3786
head -0.998947 -3.55089 7.69688
rclavicle 5.96354e-015 -1.58034e-014
rhumerus -0.0167704 50.8097 -6.304
rradius 100.281
rwrist -236.192
rhand -29.9612 -19.2097
rfingers 7.12502
rthumb -3.28 -49.1642
lclavicle 5.96354e-015 -1.58034e-014
lhumerus 0.355181 -65.3089 11.1358
lradius 109.918
lwrist 26.4333
lhand -16.5957 -8.99006
lfingers 7.12502
lthumb 9.62542 20.77
rfemur -22.6116 -3.23116 5.64832
rtibia 37.4532
rfoot -43.9389 -19.8125
rtoes -18.9454
lfemur -30.5153 -23.7703 -20.6727
ltibia 21.3458
lfoot 10.7837 8.02517
ltoes -1.65823
3172
root 3.23681 16.7154 -20.3383 90.9187 -4.42986 16.9599
lowerback 11.4804 -4.54585 -9.14527
upperback -9.43101 -8.35321 -1.17911
thorax -16.1211 -2.94963 5.77163
lowerneck -9.3723 -7.01285 -12.9959
upperneck -12.9073 -7.35455 18.0677
head -0.941154 -3.57267 7.54079
rclavicle 2.70347e-014 -1.3418e-014
rhumerus -0.792783 50.528 -8.13504
rradius 101.801
rwrist -236.773
rhand -29.2828 -18.9339
rfingers 7.12502
rthumb -2.62482 -48.8975
lclavicle 2.70347e-014 -1.3418e-014
lhumerus -0.665133 -65.1497 13.6805
lradius 111.206
lwrist 26.4994
lhand -17.1171 -8.50768
lfingers 7.12502
lthumb 9.12233 21.275
rfemur -22.4497 -3.58358 5.69385
rtibia 37.4602
rfoot -43.8548 -19.7792
rtoes -18.6125
lfemur -30.5361 -23.9544 -20.6968
ltibia 21.3158
lfoot 10.9969 8.05514
ltoes -0.939028
